<svg width="15" height="18" viewBox="0 0 15 18" fill="none" xmlns="http://www.w3.org/2000/svg">
<path d="M1.87795 16C1.87795 17.1 2.75599 18 3.82915 18H11.634C12.7071 18 13.5852 17.1 13.5852 16V6C13.5852 4.9 12.7071 4 11.634 4H3.82915C2.75599 4 1.87795 4.9 1.87795 6V16ZM4.9706 8.17C5.35109 7.78 5.96571 7.78 6.3462 8.17L7.73155 9.59L9.11691 8.17C9.49739 7.78 10.112 7.78 10.4925 8.17C10.873 8.56 10.873 9.19 10.4925 9.58L9.10715 11L10.4925 12.42C10.873 12.81 10.873 13.44 10.4925 13.83C10.112 14.22 9.49739 14.22 9.11691 13.83L7.73155 12.41L6.3462 13.83C5.96571 14.22 5.35109 14.22 4.9706 13.83C4.59012 13.44 4.59012 12.81 4.9706 12.42L6.35596 11L4.9706 9.58C4.59012 9.2 4.59012 8.56 4.9706 8.17ZM11.1462 1L10.4535 0.29C10.2779 0.11 10.0242 0 9.77056 0H5.69255C5.43889 0 5.18523 0.11 5.00962 0.29L4.31695 1H1.87795C1.34136 1 0.902344 1.45 0.902344 2C0.902344 2.55 1.34136 3 1.87795 3H13.5852C14.1217 3 14.5608 2.55 14.5608 2C14.5608 1.45 14.1217 1 13.5852 1H11.1462Z" fill="#F1DAC4"/>
</svg>
